<?xml version="1.0" encoding="UTF-8"?>
<svg width="67px" height="39px" viewBox="0 0 67 39" version="1.1" xmlns="http://www.w3.org/2000/svg" xmlns:xlink="http://www.w3.org/1999/xlink">
    <!-- Generator: Sketch 64 (93537) - https://sketch.com -->
    <title>Group 4</title>
    <desc>Created with Sketch.</desc>
    <g id="Desktop" stroke="none" stroke-width="1" fill="none" fill-rule="evenodd">
        <g id="About-us" transform="translate(-568.000000, -395.000000)" fill-rule="nonzero">
            <g id="Group-4" transform="translate(567.956129, 395.800000)">
                <path d="M4.528,15.2 L4.528,10.768 L8.992,10.768 L8.992,15.2 L11.536,15.2 L11.536,4 L8.992,4 L8.992,8.336 L4.528,8.336 L4.528,4 L2,4 L2,15.2 L4.528,15.2 Z M17.2299355,15.408 C19.5179355,15.408 21.0539355,14.272 21.4379355,12.496 L19.1979355,12.496 C18.9579355,13.024 18.3019355,13.504 17.3259355,13.504 C16.1579355,13.504 15.3739355,12.736 15.2939355,11.664 L21.5179355,11.664 L21.5179355,10.944 C21.5179355,8.592 20.0619355,6.544 17.2779355,6.544 C14.7019355,6.544 12.9419355,8.384 12.9419355,11.024 C12.9419355,13.568 14.7819355,15.408 17.2299355,15.408 Z M19.2139355,10.016 L15.3419355,10.016 C15.4539355,9.184 16.2219355,8.432 17.2779355,8.432 C18.3819355,8.432 19.1179355,9.12 19.2139355,10.016 Z M23.755871,18.88 C25.531871,18.88 26.491871,17.968 27.067871,16.416 L30.651871,6.752 L28.027871,6.752 L26.267871,12.112 L26.139871,12.112 L24.283871,6.752 L21.691871,6.752 L25.035871,15.36 L24.891871,15.76 C24.667871,16.32 24.283871,16.688 23.611871,16.688 L22.635871,16.688 L22.635871,18.88 L23.755871,18.88 Z M33.7858065,11.856 L34.3298065,8.192 L34.3298065,4 L31.8018065,4 L31.8018065,8.192 L32.3458065,11.856 L33.7858065,11.856 Z M33.0498065,15.408 C33.8658065,15.408 34.4098065,14.864 34.4098065,14.08 C34.4098065,13.328 33.8658065,12.752 33.0498065,12.752 C32.2978065,12.752 31.6898065,13.328 31.6898065,14.08 C31.6898065,14.864 32.2978065,15.408 33.0498065,15.408 Z" id="Hey!" fill="#616B75" transform="translate(18.204903, 11.440000) rotate(-15.000000) translate(-18.204903, -11.440000) "></path>
                <path d="M27.0703098,20.2008663 L27.0914261,20.2005178 C27.8924225,20.1897593 29.1885029,20.269817 30.8780597,20.5261174 L31.1780217,18.5487397 C30.3180209,18.4182802 29.5182932,18.3278557 28.7861209,18.271103 L28.3549823,18.241041 C27.9556552,18.216375 27.6199672,18.2043275 27.3524953,18.2009108 L27.0174321,18.2015655 L27.0703098,20.2008663 Z M34.6953917,21.3147527 C35.9227542,21.6342203 37.1665938,22.0208072 38.4205581,22.4798835 L39.1081292,20.6017871 C37.792923,20.1202901 36.4877799,19.7146501 35.1991814,19.3792435 L34.6953917,21.3147527 Z M42.0235536,23.9943863 C43.1847598,24.5475686 44.3350101,25.1606587 45.471248,25.8363213 L46.4934678,24.1172906 C45.3040813,23.4100232 44.0997458,22.7681054 42.8837085,22.1888023 L42.0235536,23.9943863 Z M48.7551469,27.9965923 C49.7981021,28.7520194 50.8205025,29.5621444 51.820464,30.4286719 L53.1302337,28.9172146 C52.0861584,28.0124598 51.0181837,27.1662228 49.9283537,26.3768436 L48.7551469,27.9965923 Z M54.6683128,33.1145133 C55.5674921,34.035802 56.4426289,35.0064103 57.2924496,36.0275102 L58.8297032,34.7481153 C57.9461067,33.6864322 57.0356174,32.6766146 56.0995962,31.7175782 L54.6683128,33.1145133 Z M59.6853381,39.1322897 C60.4338885,40.1807732 61.1579012,41.2729478 61.8564808,42.4096308 L63.5604112,41.3624339 C62.8378126,40.1866687 62.0883926,39.0561674 61.313074,37.97019 L59.6853381,39.1322897 Z" id="Path-5" fill="#A1AAB1" transform="translate(45.288922, 30.305271) rotate(160.000000) translate(-45.288922, -30.305271) "></path>
            </g>
        </g>
    </g>
</svg>