<?xml version="1.0" encoding="UTF-8"?>
<svg width="84px" height="39px" viewBox="0 0 84 39" version="1.1" xmlns="http://www.w3.org/2000/svg" xmlns:xlink="http://www.w3.org/1999/xlink">
    <!-- Generator: Sketch 64 (93537) - https://sketch.com -->
    <title>Group 3</title>
    <desc>Created with Sketch.</desc>
    <g id="Desktop" stroke="none" stroke-width="1" fill="none" fill-rule="evenodd">
        <g id="About-us" transform="translate(-790.000000, -362.000000)" fill-rule="nonzero">
            <g id="Group-3" transform="translate(789.973561, 362.000000)">
                <path d="M29.6326324,19 L29.6326324,14.568 L34.0966324,14.568 L34.0966324,19 L36.6406324,19 L36.6406324,7.8 L34.0966324,7.8 L34.0966324,12.136 L29.6326324,12.136 L29.6326324,7.8 L27.1046324,7.8 L27.1046324,19 L29.6326324,19 Z M42.5905679,19.208 C45.3105679,19.208 47.1505679,17.272 47.1505679,14.776 C47.1505679,12.28 45.3105679,10.344 42.6065679,10.344 C39.8705679,10.344 38.0465679,12.28 38.0465679,14.776 C38.0465679,17.272 39.8865679,19.208 42.5905679,19.208 Z M42.5905679,16.968 C41.4225679,16.968 40.5585679,16.072 40.5585679,14.776 C40.5585679,13.496 41.4225679,12.584 42.5905679,12.584 C43.7745679,12.584 44.6385679,13.496 44.6385679,14.776 C44.6385679,16.056 43.7745679,16.968 42.5905679,16.968 Z M52.3965034,19 L54.0285034,13.848 L54.1245034,13.848 L55.7405034,19 L58.4605034,19 L60.7005034,10.552 L58.1245034,10.552 L57.0045034,15.976 L56.8765034,15.976 L55.2765034,10.552 L52.8605034,10.552 L51.2605034,15.976 L51.1325034,15.976 L50.0125034,10.552 L47.4365034,10.552 L49.6765034,19 L52.3965034,19 Z M64.8584388,19.208 C66.2504388,19.208 66.9544388,18.424 67.1944388,18.04 L67.3224388,18.04 L67.3224388,19 L69.7864388,19 L69.7864388,7 L67.3064388,7 L67.3064388,11.512 L67.1784388,11.512 C66.8904388,11.064 66.1224388,10.344 64.7944388,10.344 C62.5224388,10.344 60.9544388,12.168 60.9544388,14.824 C60.9544388,17.48 62.5384388,19.208 64.8584388,19.208 Z M65.4184388,16.968 C64.2504388,16.968 63.4664388,16.088 63.4664388,14.776 C63.4664388,13.48 64.2504388,12.584 65.4024388,12.584 C66.5384388,12.584 67.3544388,13.432 67.3544388,14.776 C67.3544388,16.024 66.6024388,16.968 65.4184388,16.968 Z M72.6163743,22.68 C74.3923743,22.68 75.3523743,21.768 75.9283743,20.216 L79.5123743,10.552 L76.8883743,10.552 L75.1283743,15.912 L75.0003743,15.912 L73.1443743,10.552 L70.5523743,10.552 L73.8963743,19.16 L73.7523743,19.56 C73.5283743,20.12 73.1443743,20.488 72.4723743,20.488 L71.4963743,20.488 L71.4963743,22.68 L72.6163743,22.68 Z M82.6463098,15.656 L83.1903098,11.992 L83.1903098,7.8 L80.6623098,7.8 L80.6623098,11.992 L81.2063098,15.656 L82.6463098,15.656 Z M81.9103098,19.208 C82.7263098,19.208 83.2703098,18.664 83.2703098,17.88 C83.2703098,17.128 82.7263098,16.552 81.9103098,16.552 C81.1583098,16.552 80.5503098,17.128 80.5503098,17.88 C80.5503098,18.664 81.1583098,19.208 81.9103098,19.208 Z" id="Howdy!" fill="#616B75" transform="translate(55.187471, 14.840000) rotate(15.000000) translate(-55.187471, -14.840000) "></path>
                <path d="M4.05287767,21.0008663 L4.07399392,21.0005178 C4.87499041,20.9897593 6.17107075,21.069817 7.86062752,21.3261174 L8.16058952,19.3487397 C7.30058881,19.2182802 6.50086109,19.1278557 5.76868872,19.071103 L5.3375502,19.041041 C4.93822311,19.016375 4.60253509,19.0043275 4.33506318,19.0009108 L4,19.0015655 L4.05287767,21.0008663 Z M11.6779596,22.1147527 C12.905322,22.4342203 14.1491617,22.8208072 15.403126,23.2798835 L16.090697,21.4017871 C14.7754909,20.9202901 13.4703478,20.5146501 12.1817492,20.1792435 L11.6779596,22.1147527 Z M19.0061215,24.7943863 C20.1673276,25.3475686 21.317578,25.9606587 22.4538158,26.6363213 L23.4760357,24.9172906 C22.2866491,24.2100232 21.0823137,23.5681054 19.8662764,22.9888023 L19.0061215,24.7943863 Z M25.7377148,28.7965923 C26.78067,29.5520194 27.8030704,30.3621444 28.8030318,31.2286719 L30.1128016,29.7172146 C29.0687263,28.8124598 28.0007516,27.9662228 26.9109216,27.1768436 L25.7377148,28.7965923 Z M31.6508806,33.9145133 C32.55006,34.835802 33.4251967,35.8064103 34.2750174,36.8275102 L35.8122711,35.5481153 C34.9286745,34.4864322 34.0181853,33.4766146 33.0821641,32.5175782 L31.6508806,33.9145133 Z M36.6679059,39.9322897 C37.4164564,40.9807732 38.1404691,42.0729478 38.8390487,43.2096308 L40.542979,42.1624339 C39.8203804,40.9866687 39.0709605,39.8561674 38.2956418,38.77019 L36.6679059,39.9322897 Z" id="Path-5" fill="#A1AAB1" transform="translate(22.271490, 31.105271) scale(-1, 1) rotate(160.000000) translate(-22.271490, -31.105271) "></path>
            </g>
        </g>
    </g>
</svg>