<?xml version="1.0" encoding="utf-8"?>
<!-- Generator: Adobe Illustrator 23.0.2, SVG Export Plug-In . SVG Version: 6.00 Build 0)  -->
<svg version="1.1" id="Capa_1" xmlns="http://www.w3.org/2000/svg" xmlns:xlink="http://www.w3.org/1999/xlink" x="0px" y="0px"
	 viewBox="0 0 59.5 59.5" style="enable-background:new 0 0 59.5 59.5;" xml:space="preserve">
<style type="text/css">
	.st0{fill:#D99901;}
</style>
<g>
	<path class="st0" d="M24.1,0c-0.5,0-0.9,0.1-1.2,0.3c-1.6,0.3-2.6,1.3-3.3,2c-0.5,0.5-0.9,0.9-1.3,0.9h0c-0.5,0-0.9,0-1.3,0
		c-2.7,0-4.1,0.9-5.4,3.6c0,0.1-0.1,0.1-0.1,0.2h0.8c3.3,0,6,2.7,6,6c0,0.6-0.4,1-1,1s-1-0.4-1-1c0-2.2-1.8-4-4-4H7.5
		c-2.4,1.8-3.9,5-3.7,8.3c0.1,1.6-0.3,4.2-1.1,5.4c-1.9,3-1.9,7.1,0,10.1c0.3,0.5,0.7,1,1.2,1.6c0.9,1.1,2.4,2.9,2.3,3.8
		c-0.2,3.7,2.1,8,5.1,9.6c0.5,0.3,0.6,0.6,0.8,1.4c0,0.1,0,0.2,0.1,0.3v-1.3c0-3.9,3.1-7,7-7c0.6,0,1,0.4,1,1s-0.4,1-1,1
		c-2.8,0-5,2.2-5,5v4.5c0.5,0.4,1.1,0.6,1.5,0.8c0.9,0.4,1.3,0.5,1.5,1.5c0.4,2.8,2.1,4.5,4.5,4.5c3.6,0,7.5-3.8,7.5-9.3v-37
		c0,0.6-0.4,1-1,1c-3.3,0-6,2.7-6,6c0,4.4-3.6,8-8,8c-0.6,0-1-0.4-1-1s0.4-1,1-1c3.3,0,6-2.7,6-6c0-4.4,3.6-8,8-8c0.6,0,1,0.4,1,1
		v-9C29.2,2.2,26.2,0,24.1,0z M21.2,33c0-1.9,0.8-3.8,2.1-5.1c0.4-0.4,1-0.4,1.4,0s0.4,1,0,1.4c-1,1-1.5,2.3-1.5,3.7
		c0,1.4,0.5,2.7,1.5,3.7c0.4,0.4,0.4,1,0,1.4c-1,1-1.5,2.3-1.5,3.7s0.5,2.7,1.5,3.7c0.4,0.4,0.4,1,0,1.4c-0.2,0.2-0.5,0.3-0.7,0.3
		s-0.5-0.1-0.7-0.3c-1.4-1.4-2.1-3.2-2.1-5.1c0-1.6,0.5-3.2,1.5-4.4C21.8,36.1,21.2,34.6,21.2,33z M14.1,35.5
		C14.1,35.5,14.1,35.5,14.1,35.5c-0.4,1.1,0.2,2.2,1.2,2.6c0.5,0.2,0.8,0.8,0.6,1.3c-0.1,0.4-0.5,0.7-0.9,0.7c-0.1,0-0.2,0-0.3-0.1
		c-2.1-0.8-3.2-3.1-2.4-5.2c0,0,0,0,0,0c0.4-1.1-0.2-2.2-1.2-2.6c-0.5-0.2-0.8-0.8-0.6-1.3c0.2-0.5,0.8-0.8,1.3-0.6
		C13.8,31.1,14.8,33.4,14.1,35.5z M15.9,20.2c-0.6,1.6-2.2,2.6-3.8,2.6c-0.5,0-0.9-0.1-1.4-0.3c-1.1-0.4-2.2,0.2-2.6,1.2
		c-0.1,0.4-0.5,0.7-0.9,0.7c-0.1,0-0.2,0-0.3-0.1c-0.5-0.2-0.8-0.8-0.6-1.3c0.8-2.1,3.1-3.2,5.2-2.4c1.1,0.4,2.2-0.2,2.6-1.2
		c0.2-0.5,0.8-0.8,1.3-0.6C15.8,19.1,16.1,19.6,15.9,20.2z"/>
	<path class="st0" d="M56.8,22.5c-0.8-1.2-1.2-3.8-1.1-5.4c0.2-3.3-1.3-6.5-3.7-8.3h-4.7c-1.7,0-3,1.3-3,3c0,0.6-0.4,1-1,1
		s-1-0.4-1-1c0-2.8,2.2-5,5-5H48c0-0.1-0.1-0.1-0.1-0.2C46.6,3.9,45.2,3,42.5,3c-0.4,0-0.8,0-1.3,0c-0.3,0-0.7-0.5-1.1-0.9
		c-0.7-0.8-1.7-1.9-3.3-2L36.2,0c-3.2,0-6,1.8-6,4v46c0,5.5,4,9.3,7.5,9.3c0,0,0,0,0,0c2.4,0,4.1-1.7,4.5-4.5c0.1-1,0.5-1.2,1.5-1.5
		c0.5-0.2,1-0.4,1.5-0.8V48c0-2.8-2.2-5-5-5c-0.6,0-1-0.4-1-1s0.4-1,1-1c3.9,0,7,3.1,7,7v1.3c0-0.1,0.1-0.2,0.1-0.3
		c0.2-0.9,0.3-1.1,0.8-1.4c3-1.6,5.3-5.9,5.1-9.6c0-0.2,0-0.4,0.1-0.6l-3-3.5c-1.1-1.8-3-2.9-5.1-2.9c-4.4,0-8-3.6-8-8
		c0-0.6,0.4-1,1-1s1,0.4,1,1c0,3.3,2.7,6,6,6c2.8,0,5.3,1.4,6.8,3.8l2.4,2.8c0.4-0.5,0.8-1,1.1-1.4c0.5-0.6,0.9-1.2,1.2-1.6
		C58.7,29.6,58.7,25.4,56.8,22.5z M37.5,31c2.6,2.6,2.6,6.9,0,9.6c-0.9,0.9-1.4,2.1-1.4,3.4s0.5,2.5,1.4,3.4c0.4,0.4,0.4,1,0,1.4
		C37.3,48.9,37,49,36.8,49s-0.5-0.1-0.7-0.3c-1.3-1.3-2-3-2-4.8s0.7-3.5,2-4.8c1.9-1.9,1.9-4.9,0-6.7c-0.4-0.4-0.4-1,0-1.4
		S37.1,30.6,37.5,31z M49.4,23.4c-0.4,0.1-0.8,0.1-1.2,0.1c-3.2,0-6.1-2.3-6.7-5.6c-0.2-1.3-0.9-2.3-2-3.1c-1-0.7-2.3-1-3.6-0.8
		c-0.5,0.1-1.1-0.3-1.2-0.8c-0.1-0.5,0.3-1.1,0.8-1.2c1.8-0.3,3.6,0.1,5.1,1.1s2.5,2.6,2.8,4.4c0.5,2.6,2.9,4.3,5.5,3.9
		c0.5-0.1,1.1,0.3,1.2,0.8C50.3,22.8,50,23.3,49.4,23.4z"/>
</g>
</svg>
