<?xml version="1.0" encoding="UTF-8"?>
<svg width="18px" height="18px" viewBox="0 0 18 18" version="1.1" xmlns="http://www.w3.org/2000/svg" xmlns:xlink="http://www.w3.org/1999/xlink">
    <!-- Generator: Sketch 64 (93537) - https://sketch.com -->
    <title>dribbble</title>
    <desc>Created with Sketch.</desc>
    <g id="Desktop" stroke="none" stroke-width="1" fill="none" fill-rule="evenodd">
        <g id="About-us" transform="translate(-926.000000, -1186.000000)" fill="#616B75" fill-rule="nonzero">
            <g id="Group-2" transform="translate(926.000000, 1186.000000)">
                <g id="dribbble">
                    <path d="M8.9790411,6.16438356e-05 C4.01979452,6.16438356e-05 0,4.02041096 0,8.97910274 C0,13.9377945 4.01979452,17.9580822 8.9790411,17.9580822 C13.9382877,17.9580822 17.9580822,13.9377329 17.9580822,8.9790411 C17.9580822,4.02034932 13.938226,6.16438356e-05 8.9790411,6.16438356e-05 Z M14.8708973,4.34589041 C15.8361164,5.57155479 16.4270959,7.10241781 16.473637,8.76858904 C14.4589932,8.41561644 12.7215616,8.40495205 11.2203493,8.64289726 C11.0301164,8.20627397 10.834274,7.7820411 10.6333767,7.37124658 C12.2434521,6.70906849 13.6873973,5.74323288 14.8708973,4.34589041 Z M13.8377466,3.27291781 C12.7804932,4.55634247 11.4532397,5.43963699 9.95153425,6.04072603 C8.99019863,4.2595274 8.00143151,2.77514384 7.21128082,1.69150685 C7.77865068,1.55286986 8.36956849,1.4788352 8.9784863,1.4788352 C10.8320548,1.47821918 12.5279384,2.15556164 13.8377466,3.27291781 Z M5.75500685,2.20832877 C6.51877397,3.22797945 7.53509589,4.7050274 8.52897945,6.516 C6.42230137,7.09458904 4.06584247,7.25060959 1.68078082,7.25732877 C2.20715753,5.02606849 3.73019178,3.17638356 5.75500685,2.20832877 Z M1.47926712,8.97842466 L1.48543151,8.73597945 L1.52580822,8.73597945 C4.19819178,8.73597945 6.85146575,8.56091096 9.23036301,7.8599589 C9.40771233,8.22082192 9.58222603,8.59117808 9.75285616,8.97226027 C6.62313699,9.88982877 4.67186301,11.9493493 3.33456164,13.9090068 C2.18077397,12.5908767 1.47926712,10.8652192 1.47926712,8.97842466 Z M4.42775342,14.9338356 C5.69379452,13.0269452 7.45816438,11.1402123 10.329226,10.3477808 C10.9998493,12.0661644 11.547,13.9416164 11.8366027,15.9113836 C10.9555274,16.2773014 9.99086301,16.4793082 8.97959589,16.4793082 C7.2684863,16.4793082 5.69046575,15.903 4.42775342,14.9338356 Z M13.2160068,15.1639521 C12.9090205,13.3641986 12.4061918,11.6475411 11.8006644,10.0560205 C13.1127534,9.88933562 14.6211781,9.92977397 16.3698288,10.2513082 C16.0202466,12.2838288 14.8518493,14.0398767 13.2160068,15.1639521 Z" id="Shape"></path>
                </g>
            </g>
        </g>
    </g>
</svg>