<?xml version="1.0" encoding="UTF-8"?>
<svg width="18px" height="19px" viewBox="0 0 18 19" version="1.1" xmlns="http://www.w3.org/2000/svg" xmlns:xlink="http://www.w3.org/1999/xlink">
    <!-- Generator: Sketch 64 (93537) - https://sketch.com -->
    <title>global</title>
    <desc>Created with Sketch.</desc>
    <g id="Desktop" stroke="none" stroke-width="1" fill="none" fill-rule="evenodd">
        <g id="About-us" transform="translate(-384.000000, -1186.000000)" fill="#616B75" fill-rule="nonzero">
            <g id="global" transform="translate(384.000000, 1186.000000)">
                <path d="M16.8852807,4.66100276 L16.79918,4.51174935 C15.2365168,1.81747715 12.3223115,0 8.98971932,0 C5.65694356,0 2.74273825,1.81747715 1.18025864,4.51174935 L1.09415796,4.66100276 C0.491453154,5.74763381 0.107947128,6.9710346 1.33574614e-15,8.27154047 L1.33574614e-15,9.77545692 C0.107947128,11.0759628 0.491453154,12.2993636 1.09415796,13.3856274 L1.18025864,13.535248 C2.74273825,16.2295202 5.65694356,18.0469974 8.98971932,18.0469974 C12.3223115,18.0469974 15.2365168,16.2295202 16.79918,13.535248 L16.8852807,13.3856274 C17.4879855,12.2989964 17.8714915,11.0759628 17.9792551,9.77545692 L17.9792551,8.27154047 C17.8714915,6.9710346 17.4879855,5.74763381 16.8852807,4.66100276 Z M13.4860477,8.27154047 C13.4563071,7.48158044 13.3803035,6.72631773 13.2622593,6.0156658 L15.8768562,6.0156658 C16.185093,6.71879082 16.3916245,7.47625653 16.4709326,8.27154047 L13.4860477,8.27154047 Z M8.98971932,16.5430809 C8.13954389,16.5430809 7.23153967,15.3846687 6.63783044,13.535248 L11.3417918,13.535248 C10.7477154,15.3846687 9.83971119,16.5430809 8.98971932,16.5430809 Z M6.25597665,12.0313316 C6.12361292,11.334632 6.03402415,10.5773499 5.9991433,9.77545692 L11.9801118,9.77545692 C11.9452309,10.5773499 11.8558257,11.334632 11.723462,12.0313316 L6.25597665,12.0313316 Z M5.9991433,8.27154047 C6.03402415,7.46964752 6.12361292,6.71236538 6.25597665,6.0156658 L11.723462,6.0156658 C11.8558257,6.71236538 11.9452309,7.46964752 11.9801118,8.27154047 L5.9991433,8.27154047 Z M8.98971932,1.50391645 C9.83971119,1.50391645 10.7477154,2.66269582 11.3414246,4.51174935 L6.63783044,4.51174935 C7.23153967,2.66269582 8.13954389,1.50391645 8.98971932,1.50391645 Z M14.9910656,4.51174935 L12.9340119,4.51174935 C12.6802995,3.59438236 12.3491147,2.78606397 11.955328,2.11561684 C13.1656944,2.63754489 14.2071638,3.47174854 14.9910656,4.51174935 L14.9910656,4.51174935 Z M6.02429423,2.11561684 C5.63032391,2.78606397 5.29913919,3.59438236 5.04524312,4.51174935 L2.98837307,4.51174935 C3.7722748,3.47174854 4.81374428,2.63754489 6.02429423,2.11561684 Z M2.10239883,6.0156658 L4.71699578,6.0156658 C4.59931869,6.72631773 4.52294793,7.48158044 4.49339099,8.27154047 L1.50813888,8.27154047 C1.58744698,7.47625653 1.79379489,6.71879082 2.10239883,6.0156658 Z M4.49339099,9.77545692 C4.52294793,10.565417 4.59895155,11.3206797 4.71699578,12.0313316 L2.10239883,12.0313316 C1.79416203,11.3282066 1.58781412,10.5707409 1.50850603,9.77545692 L4.49339099,9.77545692 Z M2.98837307,13.535248 L5.04524312,13.535248 C5.29913919,14.452615 5.63032391,15.2609334 6.02392704,15.9313805 C4.81374428,15.4094525 3.7722748,14.5752488 2.98837307,13.535248 Z M11.9549608,15.9313805 C12.3491147,15.2609334 12.6802995,14.452615 12.9336448,13.535248 L14.9906984,13.535248 C14.2071638,14.5752488 13.1656944,15.4094525 11.9549608,15.9313805 Z M15.8772234,12.0313316 L13.2626265,12.0313316 C13.3803035,11.3206797 13.4566743,10.565417 13.4864148,9.77545692 L16.471667,9.77545692 C16.3919917,10.5707409 16.1854602,11.3282066 15.8772234,12.0313316 Z" id="Shape"></path>
            </g>
        </g>
    </g>
</svg>