<?xml version="1.0" encoding="utf-8"?>
<!-- Generator: Adobe Illustrator 23.0.2, SVG Export Plug-In . SVG Version: 6.00 Build 0)  -->
<!DOCTYPE svg PUBLIC "-//W3C//DTD SVG 1.1//EN" "http://www.w3.org/Graphics/SVG/1.1/DTD/svg11.dtd" [
	<!ENTITY ns_extend "http://ns.adobe.com/Extensibility/1.0/">
	<!ENTITY ns_ai "http://ns.adobe.com/AdobeIllustrator/10.0/">
	<!ENTITY ns_graphs "http://ns.adobe.com/Graphs/1.0/">
	<!ENTITY ns_vars "http://ns.adobe.com/Variables/1.0/">
	<!ENTITY ns_imrep "http://ns.adobe.com/ImageReplacement/1.0/">
	<!ENTITY ns_sfw "http://ns.adobe.com/SaveForWeb/1.0/">
	<!ENTITY ns_custom "http://ns.adobe.com/GenericCustomNamespace/1.0/">
	<!ENTITY ns_adobe_xpath "http://ns.adobe.com/XPath/1.0/">
]>
<svg version="1.1" id="Layer_1" xmlns:x="&ns_extend;" xmlns:i="&ns_ai;" xmlns:graph="&ns_graphs;"
	 xmlns="http://www.w3.org/2000/svg" xmlns:xlink="http://www.w3.org/1999/xlink" x="0px" y="0px" viewBox="0 0 294.2 294.2"
	 style="enable-background:new 0 0 294.2 294.2;" xml:space="preserve">
<style type="text/css">
	.st0{fill:#D99901;}
</style>
<metadata>
	<sfw  xmlns="&ns_sfw;">
		<slices></slices>
		<sliceSourceBounds  bottomLeftOrigin="true" height="294" width="294.2" x="0" y="0.1"></sliceSourceBounds>
	</sfw>
</metadata>
<path class="st0" d="M159,168.2c5.1,0,9.3-4.2,9.3-9.3c0-2.6-1.1-5-2.9-6.7c-1,2.9-2.7,5.7-5,8.1c-2.3,2.3-5.1,4-8.2,5.1
	C153.9,167,156.3,168.2,159,168.2z"/>
<path class="st0" d="M115.6,145.3c-1.3,4.3-2.1,8.8-2.1,13.6c0,25.1,20.4,45.5,45.5,45.5s45.5-20.4,45.5-45.5S184,113.4,159,113.4
	c-4.7,0-9.2,0.7-13.5,2.1c0,0,16,16.1,16.5,16.8c13.4,1.5,23.8,12.9,23.8,26.6c0,14.8-12,26.8-26.8,26.8
	c-13.8,0-25.2-10.5-26.7-23.9C131.7,161.3,115.6,145.3,115.6,145.3z"/>
<path class="st0" d="M159,240.4c45,0,81.6-36.6,81.6-81.6S204,77.3,159,77.3c-14.8,0-28.8,4-40.8,10.9L132,102
	c8.2-3.9,17.3-6.1,27-6.1c34.7,0,63,28.2,63,63c0,34.7-28.2,63-63,63c-34.7,0-63-28.2-63-63c0-9.7,2.2-18.8,6.1-27l-13.8-13.8
	c-7,12-11,25.9-11,40.8C77.4,203.8,114,240.4,159,240.4L159,240.4z"/>
<path class="st0" d="M54.3,43.9c0,5.6-4.6,10.2-10.2,10.2h-2.2l97.4,97.3c1.7,1.7,3.9,2.6,6.2,2.6c2.2,0,4.5-0.9,6.2-2.6
	c3.4-3.4,3.4-9,0-12.4L54.3,41.8V43.9z"/>
<path class="st0" d="M159,23.6c-29.7,0-57.2,9.6-79.5,25.9l26,26c15.4-9.9,33.8-15.7,53.5-15.7c54.6,0,99.1,44.5,99.1,99.1
	S213.6,258,159,258s-99.1-44.5-99.1-99.1c0-19.7,5.8-38.1,15.8-53.5l-26-26c-16.3,22.3-25.9,49.8-25.9,79.5
	c0,74.6,60.7,135.2,135.2,135.2c74.6,0,135.2-60.7,135.2-135.2S233.6,23.6,159,23.6L159,23.6z"/>
<path class="st0" d="M40.4,17.6L23.3,0.7C22-0.5,20,0.4,20,2.1v5.6c0,6.7-5.4,12.2-12.2,12.2H1.9c-1.7,0-2.6,2.1-1.4,3.3l17.3,17.1
	c0.4,0.4,0.9,0.6,1.4,0.6H39c1.1,0,1.9-0.9,1.9-1.9V19C40.9,18.4,40.7,17.9,40.4,17.6z"/>
</svg>
