<?xml version="1.0" encoding="utf-8"?>
<!-- Generator: Adobe Illustrator 23.0.2, SVG Export Plug-In . SVG Version: 6.00 Build 0)  -->
<svg version="1.1" id="Layer_1" xmlns="http://www.w3.org/2000/svg" xmlns:xlink="http://www.w3.org/1999/xlink" x="0px" y="0px"
	 viewBox="0 0 35 30" style="enable-background:new 0 0 35 30;" xml:space="preserve">
<style type="text/css">
	.st0{display:none;}
	.st1{display:inline;fill:#D99901;}
	.st2{fill-rule:evenodd;clip-rule:evenodd;fill:#D99901;}
</style>
<title>Group 4</title>
<desc>Created with Sketch.</desc>
<g class="st0">
	<path class="st1" d="M24,0.3c-2.5,0-4.8,1-6.5,2.6c-1.7-1.6-4-2.6-6.5-2.6c-5.1,0-9.3,4.2-9.3,9.3c0,4.1,1.5,7.8,4.7,11.5
		c2.6,3,9.5,7.7,9.8,7.9l1.2,0.8v0l0,0l0,0v0l1.2-0.8c0.3-0.2,7.2-4.9,9.8-7.9c3.2-3.7,4.7-7.4,4.7-11.5C33.3,4.5,29.1,0.3,24,0.3z
		 M25.2,18.2c-1.5,1.8-5.4,4.6-7.7,6.3c-2.3-1.6-6.2-4.5-7.7-6.3c-2.5-2.9-3.7-5.6-3.7-8.6c0-2.7,2.2-4.9,4.9-4.9
		c1.9,0,3.4,0.7,5,2.4c0.5,0.6,1.3,1.7,1.5,1.9v0c0,0,0,0,0,0c0,0,0,0,0,0v0c0.1-0.2,1-1.3,1.5-1.9c1.5-1.7,3-2.4,5-2.4
		c2.7,0,4.9,2.2,4.9,4.9C28.9,12.6,27.7,15.3,25.2,18.2z"/>
</g>
<path class="st2" d="M24,0.3c-2.5,0-4.8,1-6.5,2.6c-1.7-1.6-4-2.6-6.5-2.6c-5.1,0-9.3,4.2-9.3,9.3c0,4.1,1.5,7.8,4.7,11.5
	c2.6,3,9.5,7.7,9.8,7.9l1.2,0.8v0l0,0l0,0v0l1.2-0.8c0.3-0.2,7.2-4.9,9.8-7.9c3.2-3.7,4.7-7.4,4.7-11.5C33.3,4.5,29.1,0.3,24,0.3z
	 M25.2,18.2c-1.5,1.8-5.4,4.6-7.7,6.3c-2.3-1.6-6.2-4.5-7.7-6.3c-2.5-2.9-3.7-5.6-3.7-8.6c0-2.7,2.2-4.9,4.9-4.9
	c1.9,0,3.4,0.7,5,2.4c0.5,0.6,1.3,1.7,1.5,1.9v0c0,0,0,0,0,0c0,0,0,0,0,0v0c0.1-0.2,1-1.3,1.5-1.9c1.5-1.7,3-2.4,5-2.4
	c2.7,0,4.9,2.2,4.9,4.9C28.9,12.6,27.7,15.3,25.2,18.2z"/>
</svg>
