<?xml version="1.0" encoding="UTF-8"?>
<svg width="20px" height="18px" viewBox="0 0 20 18" version="1.1" xmlns="http://www.w3.org/2000/svg" xmlns:xlink="http://www.w3.org/1999/xlink">
    <!-- Generator: Sketch 64 (93537) - https://sketch.com -->
    <title>camera</title>
    <desc>Created with Sketch.</desc>
    <g id="Desktop" stroke="none" stroke-width="1" fill="none" fill-rule="evenodd">
        <g id="Submit-Pro" transform="translate(-479.000000, -491.000000)" fill="#9CA2AA" fill-rule="nonzero">
            <g id="camera" transform="translate(479.000000, 491.000000)">
                <path d="M11.7544376,7.6203272 C12.7296933,8.59558282 12.7296933,10.1767689 11.7544376,11.1520245 C10.779182,12.1272802 9.19799591,12.1272802 8.22274029,11.1520245 C7.24748466,10.1767689 7.24748466,8.59558282 8.22274029,7.6203272 C9.19799591,6.64507157 10.779182,6.64507157 11.7544376,7.6203272" id="Path"></path>
                <path d="M17.4804499,2.51865031 L15.7550102,2.51865031 L14.5057669,0.0213496933 L5.47075665,0.0213496933 L4.22269939,2.5198773 L2.4997137,2.52294479 C1.12609407,2.52539877 0.00789366053,3.64478528 0.00670756646,5.0190184 L0,15.004499 C0,16.3817996 1.12,17.5024131 2.49730061,17.5024131 L17.4804499,17.5024131 C18.8577505,17.5024131 19.9777505,16.3824131 19.9777505,15.0051125 L19.9777505,5.01591002 C19.9777505,3.63865031 18.8577096,2.51865031 17.4804499,2.51865031 Z M9.98854806,14.3807771 C7.23456033,14.3807771 4.99394683,12.1401636 4.99394683,9.38617587 C4.99394683,6.63218814 7.23456033,4.39157464 9.98854806,4.39157464 C12.7425358,4.39157464 14.9831493,6.63218814 14.9831493,9.38617587 C14.9831493,12.1401636 12.7425358,14.3807771 9.98854806,14.3807771 Z" id="Shape"></path>
            </g>
        </g>
    </g>
</svg>