<?xml version="1.0" encoding="UTF-8"?>
<svg width="19px" height="13px" viewBox="0 0 19 13" version="1.1" xmlns="http://www.w3.org/2000/svg" xmlns:xlink="http://www.w3.org/1999/xlink">
    <title>icon-behance-white</title>
    <g id="Page-1" stroke="none" stroke-width="1" fill="none" fill-rule="evenodd">
        <g id="icon-behance-white" fill="#FFFFFF" fill-rule="nonzero">
            <path d="M7.816125,5.40383008 C8.210375,5.20551758 8.5084375,4.98464258 8.7126875,4.74595508 C9.0760625,4.31608008 9.255375,3.74608008 9.255375,3.03951758 C9.255375,2.35195508 9.0760625,1.76414258 8.7174375,1.27133008 C8.1189375,0.468580078 7.106,0.0577050781 5.673875,0.0363300781 L0,0.0363300781 L0,11.6180176 L5.2903125,11.6180176 C5.8864375,11.6180176 6.438625,11.5669551 6.94925,11.4624551 C7.459875,11.3567676 7.901625,11.1632051 8.2756875,10.8805801 C8.6081875,10.6347676 8.8860625,10.3295801 9.1069375,9.96976757 C9.4560625,9.42589257 9.630625,8.80958007 9.630625,8.12320508 C9.630625,7.45820508 9.4774375,6.89176758 9.1734375,6.42626758 C8.865875,5.96076758 8.414625,5.61995508 7.816125,5.40383008 Z M2.3405625,2.04795508 L4.8960625,2.04795508 C5.45775,2.04795508 5.920875,2.10851758 6.28425,2.22845508 C6.704625,2.40301758 6.9148125,2.75808008 6.9148125,3.29958008 C6.9148125,3.78526758 6.7545,4.12489258 6.4374375,4.31608008 C6.118,4.50726758 5.7035625,4.60345508 5.1953125,4.60345508 L2.3405625,4.60345508 L2.3405625,2.04795508 Z M6.381625,9.40451757 C6.099,9.54108007 5.7011875,9.60876757 5.19175,9.60876757 L2.3405625,9.60876757 L2.3405625,6.52008008 L5.2309375,6.52008008 C5.7344375,6.52364258 6.1263125,6.59014258 6.4065625,6.71483008 C6.9053125,6.94045508 7.1535,7.35370508 7.1535,7.95814258 C7.1535,8.67064257 6.897,9.15039257 6.381625,9.40451757 Z" id="Shape"></path>
            <rect id="Rectangle" x="12.141" y="0.576642578" width="5.0314375" height="1.441625"></rect>
            <path d="M18.9204375,6.26595508 C18.8159375,5.59501758 18.5855625,5.00483008 18.2269375,4.49539258 C17.833875,3.91826758 17.335125,3.49551758 16.7283125,3.22833008 C16.123875,2.95995508 15.4434375,2.82576758 14.6858125,2.82693955 C13.414,2.82693955 12.380875,3.22476758 11.5816875,4.01445508 C10.784875,4.80651758 10.385875,5.94533008 10.385875,7.42970508 C10.385875,9.01264257 10.8264375,10.1562051 11.7123125,10.8580176 C12.594625,11.5610176 13.6135,11.9113301 14.770125,11.9113301 C16.1701875,11.9113301 17.259125,11.4945176 18.0369375,10.6632676 C18.5345,10.1383926 18.8159375,9.62183007 18.8776875,9.11476757 L16.5596875,9.11476757 C16.4255,9.36533007 16.2699375,9.56126757 16.0918125,9.70376757 C15.7688125,9.96501757 15.3484375,10.0956426 14.8330625,10.0956426 C14.342625,10.0956426 13.927,9.98758007 13.58025,9.77264257 C13.007875,9.42826757 12.708625,8.82501757 12.670625,7.96645508 L18.9964375,7.96645508 C19.0059375,7.22664258 18.9821875,6.65783008 18.9204375,6.26595508 Z M12.727625,6.48801758 C12.81075,5.93108008 13.012625,5.48933008 13.33325,5.16276758 C13.653875,4.83739258 14.1075,4.67351758 14.6881875,4.67233008 C15.22375,4.67233008 15.6714375,4.82551758 16.036,5.13308008 C16.3958125,5.44301758 16.598875,5.89308008 16.6404375,6.48801758 L12.727625,6.48801758 Z" id="Shape"></path>
        </g>
    </g>
</svg>