<?xml version="1.0" encoding="utf-8"?>
<!-- Generator: Adobe Illustrator 23.0.2, SVG Export Plug-In . SVG Version: 6.00 Build 0)  -->
<svg version="1.1" id="Layer_1" xmlns="http://www.w3.org/2000/svg" xmlns:xlink="http://www.w3.org/1999/xlink" x="0px" y="0px"
	 viewBox="0 0 10 10" style="enable-background:new 0 0 10 10;" xml:space="preserve">
<style type="text/css">
	.st0{display:none;}
	.st1{display:inline;}
	.st2{fill-rule:evenodd;clip-rule:evenodd;fill:#FFFFFF;}
	.st3{fill:#FCFCFC;}
</style>
<title>Combined Shape</title>
<desc>Created with Sketch.</desc>
<g id="Desktop" class="st0">
	<g id="Homepage" transform="translate(-1379.000000, -40.000000)" class="st1">
		<path id="Combined-Shape" class="st2" d="M1385,40v4l4,0v2h-4v4h-2v-4h-4v-2h4v-4H1385z"/>
	</g>
</g>
<path class="st3" d="M7.16,2.14C6.85,2.14,6.6,2.39,6.6,2.7c0,0.31,0.25,0.56,0.56,0.56c0.31,0,0.56-0.25,0.56-0.56
	C7.72,2.39,7.47,2.14,7.16,2.14z M4.67,2.79c-1.32,0-2.39,1.07-2.39,2.39s1.07,2.39,2.39,2.39s2.39-1.07,2.39-2.39
	S5.99,2.79,4.67,2.79z M4.67,6.74c-0.86,0-1.55-0.7-1.55-1.55s0.7-1.55,1.55-1.55s1.55,0.7,1.55,1.55S5.53,6.74,4.67,6.74z
	 M7.16,2.14C6.85,2.14,6.6,2.39,6.6,2.7c0,0.31,0.25,0.56,0.56,0.56c0.31,0,0.56-0.25,0.56-0.56C7.72,2.39,7.47,2.14,7.16,2.14z
	 M4.67,2.79c-1.32,0-2.39,1.07-2.39,2.39s1.07,2.39,2.39,2.39s2.39-1.07,2.39-2.39S5.99,2.79,4.67,2.79z M4.67,6.74
	c-0.86,0-1.55-0.7-1.55-1.55s0.7-1.55,1.55-1.55s1.55,0.7,1.55,1.55S5.53,6.74,4.67,6.74z M7.16,2.14C6.85,2.14,6.6,2.39,6.6,2.7
	c0,0.31,0.25,0.56,0.56,0.56c0.31,0,0.56-0.25,0.56-0.56C7.72,2.39,7.47,2.14,7.16,2.14z M4.67,2.79c-1.32,0-2.39,1.07-2.39,2.39
	s1.07,2.39,2.39,2.39s2.39-1.07,2.39-2.39S5.99,2.79,4.67,2.79z M4.67,6.74c-0.86,0-1.55-0.7-1.55-1.55s0.7-1.55,1.55-1.55
	s1.55,0.7,1.55,1.55S5.53,6.74,4.67,6.74z"/>
</svg>
